<svg version="1.1" viewBox="0.0 0.0 960.0 192.0" fill="none" stroke="none" stroke-linecap="square" stroke-miterlimit="10" xmlns:xlink="http://www.w3.org/1999/xlink" xmlns="http://www.w3.org/2000/svg"><clipPath id="p.0"><path d="m0 0l960.0 0l0 192.0l-960.0 0l0 -192.0z" clip-rule="nonzero"/></clipPath><g clip-path="url(#p.0)"><path fill="#000000" fill-opacity="0.0" d="m0 0l960.0 0l0 192.0l-960.0 0z" fill-rule="evenodd"/><path fill="#f2e3d5" d="m55.637794 60.33858l848.72437 0l0 127.968506l-848.72437 0z" fill-rule="evenodd"/><path fill="#012e40" d="m96.16111 83.02535l0 12.642258l46.519844 0l-47.324005 57.787804l0 10.005341l68.59683 0l0 -12.642258l-48.820107 0l47.323997 -57.78781l0 -10.005333z" fill-rule="evenodd"/><path fill="#012e40" d="m201.74992 112.91044c3.453537 0 6.501877 0.7667694 9.145004 2.300293c2.6431274 1.5210571 4.7252045 3.6218643 6.246277 6.302429c1.0841827 1.8951492 1.7664185 4.0021973 2.0467072 6.321121l-34.9048 0c0.32365417 -2.3063736 0.99679565 -4.388481 2.0194397 -6.246315c1.496109 -2.7304306 3.5657349 -4.8561783 6.2088623 -6.3772354c2.6431274 -1.5335236 5.722641 -2.300293 9.23851 -2.300293zm0 -11.501457c-6.1215973 0 -11.576187 1.3402863 -16.363754 4.020836c-4.787567 2.6805573 -8.546555 6.3772354 -11.276962 11.090027c-2.7179413 4.7127914 -4.0769043 10.136246 -4.0769043 16.270348c0 6.0468445 1.3963623 11.445358 4.1891174 16.195557c2.8052216 4.7501984 6.7512207 8.484268 11.837997 11.202225c5.0992737 2.7179718 11.058792 4.07695 17.87857 4.07695c5.361084 0 10.129944 -0.86027527 14.306595 -2.5808258c4.176651 -1.7205353 7.642639 -4.1953735 10.397995 -7.424515l-7.7049866 -8.84584c-2.1444397 2.3065338 -4.59433 3.9959106 -7.3496704 5.0681305c-2.7553253 1.0722198 -5.8597717 1.6083374 -9.313309 1.6083374c-3.9771729 0 -7.4992676 -0.7667694 -10.566299 -2.300293c-3.0670319 -1.5335388 -5.4421234 -3.7153778 -7.125244 -6.5455475c-1.0607758 -1.7915344 -1.7872925 -3.7489624 -2.1795044 -5.872284l48.147614 0c0.074798584 -0.68573 0.13090515 -1.4088593 0.16830444 -2.1693878c0.03741455 -0.772995 0.056106567 -1.4649658 0.056106567 -2.0758667c0 -6.433342 -1.340271 -12.025108 -4.0207977 -16.7753c-2.680542 -4.7501984 -6.35849 -8.428177 -11.033844 -11.03392c-4.675354 -2.605751 -9.999039 -3.9086304 -15.971024 -3.9086304z" fill-rule="evenodd"/><path fill="#012e40" d="m282.06445 101.40898c-5.8971863 0 -10.821869 1.0722275 -14.774139 3.2166672c-2.9346924 1.5973816 -5.284851 3.7481918 -7.050415 6.452446l0 0l0 -8.97715l-13.670761 0l0 61.35981l14.362686 0l0 -29.75418c0 -6.283722 1.6083374 -11.015221 4.8249817 -14.194481c3.2166443 -3.179268 7.5429077 -4.768898 12.97879 -4.768898c0.5361023 0 1.0722351 0.018699646 1.6083374 0.056106567c0.5361023 0.037399292 1.1096191 0.13090515 1.72052 0.28051758l0 -13.670837z" fill-rule="evenodd"/><path fill="#012e40" d="m321.37558 113.6024c3.44104 0 6.5392456 0.7667618 9.294586 2.300293c2.755371 1.5210571 4.9184875 3.7216034 6.4894104 6.6016464c1.5709229 2.867569 2.3563843 6.2961807 2.3563843 10.285851c0 3.9023895 -0.7854614 7.312317 -2.3563843 10.229752c-1.5709229 2.9049835 -3.7340393 5.124237 -6.4894104 6.6577606c-2.7553406 1.5335236 -5.897156 2.300293 -9.425507 2.300293c-3.4410706 0 -6.520569 -0.7667694 -9.238495 -2.300293c-2.7179565 -1.5335236 -4.881073 -3.752777 -6.4894104 -6.6577606c-1.6083069 -2.9174347 -2.4124756 -6.327362 -2.4124756 -10.229752c0 -3.9896545 0.8041687 -7.418274 2.4124756 -10.285851c1.6083374 -2.880043 3.7714539 -5.0805893 6.4894104 -6.6016464c2.717926 -1.5335312 5.8410645 -2.300293 9.369415 -2.300293zm-0.13092041 -12.19342c-6.2712097 0 -11.862946 1.3402863 -16.775177 4.020836c-4.8997803 2.6805573 -8.770966 6.3772354 -11.613586 11.090027c-2.8301392 4.7127914 -4.2452393 10.136246 -4.2452393 16.270348c0 6.0468445 1.4151001 11.445358 4.2452393 16.195557c2.8426208 4.7501984 6.713806 8.484268 11.613586 11.202225c4.9122314 2.7179718 10.503967 4.07695 16.775177 4.07695c6.35849 0 12.006317 -1.3589783 16.943481 -4.07695c4.949646 -2.7179565 8.820862 -6.4520264 11.613586 -11.202225c2.7927551 -4.7501984 4.1891174 -10.148712 4.1891174 -16.195557c0 -6.208908 -1.3963623 -11.651062 -4.1891174 -16.326454c-2.7927246 -4.675392 -6.6639404 -8.353363 -11.613586 -11.03392c-4.9371643 -2.6805496 -10.584991 -4.020836 -16.943481 -4.020836z" fill-rule="evenodd"/><path fill="#012e40" d="m365.8348 125.534l0 11.950287l31.605438 0l0 -11.950287z" fill-rule="evenodd"/><path fill="#012e40" d="m452.9303 81.88456c-6.283661 0 -12.068634 1.0161209 -17.35492 3.048355c-5.286255 2.0197678 -9.905518 4.8873367 -13.857758 8.602715c-3.9397583 3.7153778 -6.9818726 8.104012 -9.126282 13.165894c-2.1444397 5.049423 -3.2166443 10.566383 -3.2166443 16.55088c0 5.972023 1.0722046 11.488991 3.2166443 16.55088c2.1444092 5.049423 5.167816 9.431824 9.07019 13.147186c3.9148254 3.7153778 8.496674 6.5891876 13.745544 8.621429c5.248871 2.0197601 11.015137 3.0296478 17.298828 3.0296478c5.6602783 0 11.264496 -0.86027527 16.812592 -2.5808105c5.560547 -1.7205505 10.447845 -4.263962 14.661896 -7.630249l0 -32.073166l-14.138275 0l0 25.020538l0 0c-1.6278381 0.94026184 -3.2922668 1.7015076 -4.993286 2.2837372c-3.715332 1.2592468 -7.561615 1.888855 -11.538757 1.888855c-4.2888794 0 -8.197479 -0.6857147 -11.7258 -2.0571747c-3.5283508 -1.3839111 -6.595398 -3.3600311 -9.201111 -5.9283905c-2.5932617 -2.568344 -4.6005554 -5.573059 -6.0218506 -9.014145c-1.4213257 -3.4535522 -2.1319885 -7.206337 -2.1319885 -11.258339c0 -4.1392746 0.71066284 -7.9294586 2.1319885 -11.370544c1.4212952 -3.4535599 3.4285889 -6.4458084 6.0218506 -8.976753c2.605713 -2.5309372 5.7101746 -4.482132 9.313293 -5.8535843c3.6031494 -1.3839111 7.5117493 -2.0758743 11.7258 -2.0758743c4.363678 0 8.365784 0.74806213 12.006317 2.2441864c3.640564 1.4961243 7.0317383 3.815117 10.173584 6.956978l9.40683 -9.201164c-3.7527466 -4.288887 -8.365784 -7.542961 -13.83905 -9.762215c-5.473297 -2.219246 -11.619843 -3.3288727 -18.439636 -3.3288727z" fill-rule="evenodd"/><path fill="#012e40" d="m567.6027 97.91521l15.121704 35.211624l-30.17987 0l15.0581665 -35.211624zm-7.234375 -14.889854l-36.205994 80.4354l15.409973 0l7.9577026 -18.608047l40.230103 0l7.991333 18.608047l15.634399 0l-36.318176 -80.4354z" fill-rule="evenodd"/><path fill="#012e40" d="m655.7242 101.40898c-5.897156 0 -10.821899 1.0722275 -14.774109 3.2166672c-2.9346924 1.5973816 -5.284851 3.7481918 -7.050476 6.452446l0 0l0 -8.97715l-13.670715 0l0 61.35981l14.362671 0l0 -29.75418c0 -6.283722 1.6083374 -11.015221 4.825012 -14.194481c3.2166138 -3.179268 7.5429077 -4.768898 12.97876 -4.768898c0.5361328 0 1.0722046 0.018699646 1.6083374 0.056106567c0.5361328 0.037399292 1.1096191 0.13090515 1.72052 0.28051758l0 -13.670837z" fill-rule="evenodd"/><path fill="#012e40" d="m693.988 112.91044c3.4535522 0 6.501892 0.7667694 9.14502 2.300293c2.6431274 1.5210571 4.7252197 3.6218643 6.246277 6.302429c1.0841675 1.8951492 1.7664185 4.0021973 2.046692 6.321121l-34.904785 0c0.32366943 -2.3063736 0.9968262 -4.388481 2.0194702 -6.246315c1.4960938 -2.7304306 3.5657349 -4.8561783 6.2088623 -6.3772354c2.6431274 -1.5335236 5.722595 -2.300293 9.238464 -2.300293zm0 -11.501457c-6.121582 0 -11.576172 1.3402863 -16.363708 4.020836c-4.7875977 2.6805573 -8.54657 6.3772354 -11.276978 11.090027c-2.7179565 4.7127914 -4.0769043 10.136246 -4.0769043 16.270348c0 6.0468445 1.3963623 11.445358 4.189087 16.195557c2.8052368 4.7501984 6.7512207 8.484268 11.838013 11.202225c5.099304 2.7179718 11.058838 4.07695 17.878601 4.07695c5.361084 0 10.129944 -0.86027527 14.30658 -2.5808258c4.1766357 -1.7205353 7.642639 -4.1953735 10.39801 -7.424515l-7.705017 -8.84584c-2.1444092 2.3065338 -4.5942993 3.9959106 -7.3496704 5.0681305c-2.75531 1.0722198 -5.859741 1.6083374 -9.313293 1.6083374c-3.9771729 0 -7.4992676 -0.7667694 -10.566284 -2.300293c-3.0670776 -1.5335388 -5.4421387 -3.7153778 -7.125244 -6.5455475c-1.060791 -1.7915344 -1.7872925 -3.7489624 -2.1795044 -5.872284l48.147583 0c0.0748291 -0.68573 0.13092041 -1.4088593 0.16833496 -2.1693878c0.03741455 -0.772995 0.05609131 -1.4649658 0.05609131 -2.0758667c0 -6.433342 -1.340271 -12.025108 -4.020813 -16.7753c-2.680542 -4.7501984 -6.3584595 -8.428177 -11.033813 -11.03392c-4.675354 -2.605751 -9.999084 -3.9086304 -15.971069 -3.9086304z" fill-rule="evenodd"/><path fill="#012e40" d="m773.6106 101.40898c-5.361084 0 -10.09259 1.0535202 -14.194397 3.1605682c-2.7537231 1.4188385 -5.0664673 3.2475433 -6.9382324 5.486107l0 0l0 -7.954712l-13.670776 0l0 61.35981l14.362732 0l0 -31.025894c0 -4.139267 0.70440674 -7.5678864 2.1132812 -10.285851c1.4212646 -2.7179565 3.4348145 -4.762657 6.0405273 -6.1341095c2.605713 -1.3839188 5.591736 -2.0758743 8.958008 -2.0758743c4.600525 0 8.184998 1.3402786 10.753296 4.020836c2.5683594 2.6805573 3.852478 6.7387924 3.852478 12.174721l0 33.32617l14.362732 0l0 -35.158936c0 -6.2089157 -1.1158447 -11.283264 -3.3475342 -15.223061c-2.2192383 -3.9522629 -5.2613525 -6.8821716 -9.126343 -8.789734c-3.8649292 -1.9200287 -8.25354 -2.880043 -13.1657715 -2.880043z" fill-rule="evenodd"/><path fill="#012e40" d="m854.50616 137.14766l0 7.12529c-1.2218628 3.141861 -3.2353516 5.516968 -6.0405884 7.12529c-2.7927246 1.6083374 -5.9470215 2.412506 -9.462891 2.412506c-3.6779175 0 -6.551697 -0.7667694 -8.621338 -2.300293c-2.069641 -1.5335236 -3.1044922 -3.6031647 -3.1044922 -6.208908c0 -2.2940674 0.84161377 -4.2265625 2.5247192 -5.7974854c1.6831055 -1.5709381 4.980835 -2.3563995 9.893066 -2.3563995zm-13.558533 -35.738678c-4.8997803 0 -9.631226 0.6358566 -14.194397 1.9075623c-4.550659 1.2592392 -8.471741 3.1543274 -11.763184 5.685272l5.6291504 10.45417c2.2940063 -1.9200287 5.1054688 -3.416153 8.434326 -4.488373c3.3413086 -1.0722198 6.732483 -1.6083374 10.173584 -1.6083374c5.1366577 0 8.964172 1.1719666 11.482666 3.5158997c2.5309448 2.331459 3.7963867 5.604233 3.7963867 9.818314l0 0.9163742l-15.858826 0c-6.196411 0 -11.170959 0.8041687 -14.923706 2.412506c-3.7527466 1.6083374 -6.458252 3.7901764 -8.116455 6.5455475c-1.6456909 2.7553558 -2.468567 5.8598175 -2.468567 9.31337c0 3.5283508 0.9350586 6.688919 2.8052368 9.481689c1.8825684 2.7927704 4.5444336 4.9746094 7.9854736 6.5455475c3.4535522 1.5709229 7.480591 2.3563995 12.081116 2.3563995c5.435913 0 9.936707 -0.9911957 13.502441 -2.9735565c2.4507446 -1.3710632 4.3832397 -3.1220093 5.7974243 -5.2528534l0 0l0 7.422241l13.558533 0l0 -35.963097c0 -8.889473 -2.4311523 -15.459953 -7.293518 -19.711441c-4.8623657 -4.2514877 -11.738281 -6.3772354 -20.627686 -6.3772354z" fill-rule="evenodd"/><path stroke="#073763" stroke-width="1.0" stroke-linejoin="round" stroke-linecap="butt" d="m96.16111 83.02535l0 12.642258l46.519844 0l-47.324005 57.787804l0 10.005341l68.59683 0l0 -12.642258l-48.820107 0l47.323997 -57.78781l0 -10.005333z" fill-rule="evenodd"/><path stroke="#073763" stroke-width="1.0" stroke-linejoin="round" stroke-linecap="butt" d="m201.74992 112.91044c3.453537 0 6.501877 0.7667694 9.145004 2.300293c2.6431274 1.5210571 4.7252045 3.6218643 6.246277 6.302429c1.0841827 1.8951492 1.7664185 4.0021973 2.0467072 6.321121l-34.9048 0c0.32365417 -2.3063736 0.99679565 -4.388481 2.0194397 -6.246315c1.496109 -2.7304306 3.5657349 -4.8561783 6.2088623 -6.3772354c2.6431274 -1.5335236 5.722641 -2.300293 9.23851 -2.300293zm0 -11.501457c-6.1215973 0 -11.576187 1.3402863 -16.363754 4.020836c-4.787567 2.6805573 -8.546555 6.3772354 -11.276962 11.090027c-2.7179413 4.7127914 -4.0769043 10.136246 -4.0769043 16.270348c0 6.0468445 1.3963623 11.445358 4.1891174 16.195557c2.8052216 4.7501984 6.7512207 8.484268 11.837997 11.202225c5.0992737 2.7179718 11.058792 4.07695 17.87857 4.07695c5.361084 0 10.129944 -0.86027527 14.306595 -2.5808258c4.176651 -1.7205353 7.642639 -4.1953735 10.397995 -7.424515l-7.7049866 -8.84584c-2.1444397 2.3065338 -4.59433 3.9959106 -7.3496704 5.0681305c-2.7553253 1.0722198 -5.8597717 1.6083374 -9.313309 1.6083374c-3.9771729 0 -7.4992676 -0.7667694 -10.566299 -2.300293c-3.0670319 -1.5335388 -5.4421234 -3.7153778 -7.125244 -6.5455475c-1.0607758 -1.7915344 -1.7872925 -3.7489624 -2.1795044 -5.872284l48.147614 0c0.074798584 -0.68573 0.13090515 -1.4088593 0.16830444 -2.1693878c0.03741455 -0.772995 0.056106567 -1.4649658 0.056106567 -2.0758667c0 -6.433342 -1.340271 -12.025108 -4.0207977 -16.7753c-2.680542 -4.7501984 -6.35849 -8.428177 -11.033844 -11.03392c-4.675354 -2.605751 -9.999039 -3.9086304 -15.971024 -3.9086304z" fill-rule="evenodd"/><path stroke="#073763" stroke-width="1.0" stroke-linejoin="round" stroke-linecap="butt" d="m282.06445 101.40898c-5.8971863 0 -10.821869 1.0722275 -14.774139 3.2166672c-2.9346924 1.5973816 -5.284851 3.7481918 -7.050415 6.452446l0 0l0 -8.97715l-13.670761 0l0 61.35981l14.362686 0l0 -29.75418c0 -6.283722 1.6083374 -11.015221 4.8249817 -14.194481c3.2166443 -3.179268 7.5429077 -4.768898 12.97879 -4.768898c0.5361023 0 1.0722351 0.018699646 1.6083374 0.056106567c0.5361023 0.037399292 1.1096191 0.13090515 1.72052 0.28051758l0 -13.670837z" fill-rule="evenodd"/><path stroke="#073763" stroke-width="1.0" stroke-linejoin="round" stroke-linecap="butt" d="m321.37558 113.6024c3.44104 0 6.5392456 0.7667618 9.294586 2.300293c2.755371 1.5210571 4.9184875 3.7216034 6.4894104 6.6016464c1.5709229 2.867569 2.3563843 6.2961807 2.3563843 10.285851c0 3.9023895 -0.7854614 7.312317 -2.3563843 10.229752c-1.5709229 2.9049835 -3.7340393 5.124237 -6.4894104 6.6577606c-2.7553406 1.5335236 -5.897156 2.300293 -9.425507 2.300293c-3.4410706 0 -6.520569 -0.7667694 -9.238495 -2.300293c-2.7179565 -1.5335236 -4.881073 -3.752777 -6.4894104 -6.6577606c-1.6083069 -2.9174347 -2.4124756 -6.327362 -2.4124756 -10.229752c0 -3.9896545 0.8041687 -7.418274 2.4124756 -10.285851c1.6083374 -2.880043 3.7714539 -5.0805893 6.4894104 -6.6016464c2.717926 -1.5335312 5.8410645 -2.300293 9.369415 -2.300293zm-0.13092041 -12.19342c-6.2712097 0 -11.862946 1.3402863 -16.775177 4.020836c-4.8997803 2.6805573 -8.770966 6.3772354 -11.613586 11.090027c-2.8301392 4.7127914 -4.2452393 10.136246 -4.2452393 16.270348c0 6.0468445 1.4151001 11.445358 4.2452393 16.195557c2.8426208 4.7501984 6.713806 8.484268 11.613586 11.202225c4.9122314 2.7179718 10.503967 4.07695 16.775177 4.07695c6.35849 0 12.006317 -1.3589783 16.943481 -4.07695c4.949646 -2.7179565 8.820862 -6.4520264 11.613586 -11.202225c2.7927551 -4.7501984 4.1891174 -10.148712 4.1891174 -16.195557c0 -6.208908 -1.3963623 -11.651062 -4.1891174 -16.326454c-2.7927246 -4.675392 -6.6639404 -8.353363 -11.613586 -11.03392c-4.9371643 -2.6805496 -10.584991 -4.020836 -16.943481 -4.020836z" fill-rule="evenodd"/><path stroke="#073763" stroke-width="1.0" stroke-linejoin="round" stroke-linecap="butt" d="m365.8348 125.534l0 11.950287l31.605438 0l0 -11.950287z" fill-rule="evenodd"/><path stroke="#073763" stroke-width="1.0" stroke-linejoin="round" stroke-linecap="butt" d="m452.9303 81.88456c-6.283661 0 -12.068634 1.0161209 -17.35492 3.048355c-5.286255 2.0197678 -9.905518 4.8873367 -13.857758 8.602715c-3.9397583 3.7153778 -6.9818726 8.104012 -9.126282 13.165894c-2.1444397 5.049423 -3.2166443 10.566383 -3.2166443 16.55088c0 5.972023 1.0722046 11.488991 3.2166443 16.55088c2.1444092 5.049423 5.167816 9.431824 9.07019 13.147186c3.9148254 3.7153778 8.496674 6.5891876 13.745544 8.621429c5.248871 2.0197601 11.015137 3.0296478 17.298828 3.0296478c5.6602783 0 11.264496 -0.86027527 16.812592 -2.5808105c5.560547 -1.7205505 10.447845 -4.263962 14.661896 -7.630249l0 -32.073166l-14.138275 0l0 25.020538l0 0c-1.6278381 0.94026184 -3.2922668 1.7015076 -4.993286 2.2837372c-3.715332 1.2592468 -7.561615 1.888855 -11.538757 1.888855c-4.2888794 0 -8.197479 -0.6857147 -11.7258 -2.0571747c-3.5283508 -1.3839111 -6.595398 -3.3600311 -9.201111 -5.9283905c-2.5932617 -2.568344 -4.6005554 -5.573059 -6.0218506 -9.014145c-1.4213257 -3.4535522 -2.1319885 -7.206337 -2.1319885 -11.258339c0 -4.1392746 0.71066284 -7.9294586 2.1319885 -11.370544c1.4212952 -3.4535599 3.4285889 -6.4458084 6.0218506 -8.976753c2.605713 -2.5309372 5.7101746 -4.482132 9.313293 -5.8535843c3.6031494 -1.3839111 7.5117493 -2.0758743 11.7258 -2.0758743c4.363678 0 8.365784 0.74806213 12.006317 2.2441864c3.640564 1.4961243 7.0317383 3.815117 10.173584 6.956978l9.40683 -9.201164c-3.7527466 -4.288887 -8.365784 -7.542961 -13.83905 -9.762215c-5.473297 -2.219246 -11.619843 -3.3288727 -18.439636 -3.3288727z" fill-rule="evenodd"/><path stroke="#073763" stroke-width="1.0" stroke-linejoin="round" stroke-linecap="butt" d="m567.6027 97.91521l15.121704 35.211624l-30.17987 0l15.0581665 -35.211624zm-7.234375 -14.889854l-36.205994 80.4354l15.409973 0l7.9577026 -18.608047l40.230103 0l7.991333 18.608047l15.634399 0l-36.318176 -80.4354z" fill-rule="evenodd"/><path stroke="#073763" stroke-width="1.0" stroke-linejoin="round" stroke-linecap="butt" d="m655.7242 101.40898c-5.897156 0 -10.821899 1.0722275 -14.774109 3.2166672c-2.9346924 1.5973816 -5.284851 3.7481918 -7.050476 6.452446l0 0l0 -8.97715l-13.670715 0l0 61.35981l14.362671 0l0 -29.75418c0 -6.283722 1.6083374 -11.015221 4.825012 -14.194481c3.2166138 -3.179268 7.5429077 -4.768898 12.97876 -4.768898c0.5361328 0 1.0722046 0.018699646 1.6083374 0.056106567c0.5361328 0.037399292 1.1096191 0.13090515 1.72052 0.28051758l0 -13.670837z" fill-rule="evenodd"/><path stroke="#073763" stroke-width="1.0" stroke-linejoin="round" stroke-linecap="butt" d="m693.988 112.91044c3.4535522 0 6.501892 0.7667694 9.14502 2.300293c2.6431274 1.5210571 4.7252197 3.6218643 6.246277 6.302429c1.0841675 1.8951492 1.7664185 4.0021973 2.046692 6.321121l-34.904785 0c0.32366943 -2.3063736 0.9968262 -4.388481 2.0194702 -6.246315c1.4960938 -2.7304306 3.5657349 -4.8561783 6.2088623 -6.3772354c2.6431274 -1.5335236 5.722595 -2.300293 9.238464 -2.300293zm0 -11.501457c-6.121582 0 -11.576172 1.3402863 -16.363708 4.020836c-4.7875977 2.6805573 -8.54657 6.3772354 -11.276978 11.090027c-2.7179565 4.7127914 -4.0769043 10.136246 -4.0769043 16.270348c0 6.0468445 1.3963623 11.445358 4.189087 16.195557c2.8052368 4.7501984 6.7512207 8.484268 11.838013 11.202225c5.099304 2.7179718 11.058838 4.07695 17.878601 4.07695c5.361084 0 10.129944 -0.86027527 14.30658 -2.5808258c4.1766357 -1.7205353 7.642639 -4.1953735 10.39801 -7.424515l-7.705017 -8.84584c-2.1444092 2.3065338 -4.5942993 3.9959106 -7.3496704 5.0681305c-2.75531 1.0722198 -5.859741 1.6083374 -9.313293 1.6083374c-3.9771729 0 -7.4992676 -0.7667694 -10.566284 -2.300293c-3.0670776 -1.5335388 -5.4421387 -3.7153778 -7.125244 -6.5455475c-1.060791 -1.7915344 -1.7872925 -3.7489624 -2.1795044 -5.872284l48.147583 0c0.0748291 -0.68573 0.13092041 -1.4088593 0.16833496 -2.1693878c0.03741455 -0.772995 0.05609131 -1.4649658 0.05609131 -2.0758667c0 -6.433342 -1.340271 -12.025108 -4.020813 -16.7753c-2.680542 -4.7501984 -6.3584595 -8.428177 -11.033813 -11.03392c-4.675354 -2.605751 -9.999084 -3.9086304 -15.971069 -3.9086304z" fill-rule="evenodd"/><path stroke="#073763" stroke-width="1.0" stroke-linejoin="round" stroke-linecap="butt" d="m773.6106 101.40898c-5.361084 0 -10.09259 1.0535202 -14.194397 3.1605682c-2.7537231 1.4188385 -5.0664673 3.2475433 -6.9382324 5.486107l0 0l0 -7.954712l-13.670776 0l0 61.35981l14.362732 0l0 -31.025894c0 -4.139267 0.70440674 -7.5678864 2.1132812 -10.285851c1.4212646 -2.7179565 3.4348145 -4.762657 6.0405273 -6.1341095c2.605713 -1.3839188 5.591736 -2.0758743 8.958008 -2.0758743c4.600525 0 8.184998 1.3402786 10.753296 4.020836c2.5683594 2.6805573 3.852478 6.7387924 3.852478 12.174721l0 33.32617l14.362732 0l0 -35.158936c0 -6.2089157 -1.1158447 -11.283264 -3.3475342 -15.223061c-2.2192383 -3.9522629 -5.2613525 -6.8821716 -9.126343 -8.789734c-3.8649292 -1.9200287 -8.25354 -2.880043 -13.1657715 -2.880043z" fill-rule="evenodd"/><path stroke="#073763" stroke-width="1.0" stroke-linejoin="round" stroke-linecap="butt" d="m854.50616 137.14766l0 7.12529c-1.2218628 3.141861 -3.2353516 5.516968 -6.0405884 7.12529c-2.7927246 1.6083374 -5.9470215 2.412506 -9.462891 2.412506c-3.6779175 0 -6.551697 -0.7667694 -8.621338 -2.300293c-2.069641 -1.5335236 -3.1044922 -3.6031647 -3.1044922 -6.208908c0 -2.2940674 0.84161377 -4.2265625 2.5247192 -5.7974854c1.6831055 -1.5709381 4.980835 -2.3563995 9.893066 -2.3563995zm-13.558533 -35.738678c-4.8997803 0 -9.631226 0.6358566 -14.194397 1.9075623c-4.550659 1.2592392 -8.471741 3.1543274 -11.763184 5.685272l5.6291504 10.45417c2.2940063 -1.9200287 5.1054688 -3.416153 8.434326 -4.488373c3.3413086 -1.0722198 6.732483 -1.6083374 10.173584 -1.6083374c5.1366577 0 8.964172 1.1719666 11.482666 3.5158997c2.5309448 2.331459 3.7963867 5.604233 3.7963867 9.818314l0 0.9163742l-15.858826 0c-6.196411 0 -11.170959 0.8041687 -14.923706 2.412506c-3.7527466 1.6083374 -6.458252 3.7901764 -8.116455 6.5455475c-1.6456909 2.7553558 -2.468567 5.8598175 -2.468567 9.31337c0 3.5283508 0.9350586 6.688919 2.8052368 9.481689c1.8825684 2.7927704 4.5444336 4.9746094 7.9854736 6.5455475c3.4535522 1.5709229 7.480591 2.3563995 12.081116 2.3563995c5.435913 0 9.936707 -0.9911957 13.502441 -2.9735565c2.4507446 -1.3710632 4.3832397 -3.1220093 5.7974243 -5.2528534l0 0l0 7.422241l13.558533 0l0 -35.963097c0 -8.889473 -2.4311523 -15.459953 -7.293518 -19.711441c-4.8623657 -4.2514877 -11.738281 -6.3772354 -20.627686 -6.3772354z" fill-rule="evenodd"/></g></svg>