<svg version="1.1" viewBox="0.0 0.0 288.0 288.0" fill="none" stroke="none" stroke-linecap="square" stroke-miterlimit="10" xmlns:xlink="http://www.w3.org/1999/xlink" xmlns="http://www.w3.org/2000/svg"><clipPath id="p.0"><path d="m0 0l288.0 0l0 288.0l-288.0 0l0 -288.0z" clip-rule="nonzero"/></clipPath><g clip-path="url(#p.0)"><path fill="#000000" fill-opacity="0.0" d="m0 0l288.0 0l0 288.0l-288.0 0z" fill-rule="evenodd"/><path fill="#f2e3d5" d="m11.152231 38.740158l262.58267 0l0 202.3622l-262.58267 0z" fill-rule="evenodd"/><path fill="#012e40" d="m77.15009 104.46028c7.092346 0 13.012009 3.3491592 17.759003 10.047485c4.7657547 6.698326 7.148636 20.235703 7.148636 40.61212c0 20.26384 -2.3828812 33.77307 -7.148636 40.52768c-4.746994 6.754608 -10.610374 10.131912 -17.590141 10.131912c-6.979767 0 -12.852531 -3.3585358 -17.618282 -10.075623c-4.746994 -6.735855 -7.120487 -20.26384 -7.120487 -40.58397c0 -20.32013 2.6174126 -34.251526 7.8522377 -41.79418c4.165348 -5.910286 9.737904 -8.865425 16.71767 -8.865425zm0.16886139 -12.580467c-9.006149 0 -16.483135 2.4204025 -22.430946 7.2612076c-5.9290504 4.840805 -10.403984 11.726761 -13.424793 20.65786c-3.0020523 8.912346 -4.5030746 20.686012 -4.5030746 35.321007c0 23.247131 4.0809097 40.021088 12.242737 50.32187c6.8109016 8.555847 16.182926 12.833771 28.116077 12.833771c9.062439 0 16.55819 -2.4297943 22.487236 -7.2893524c5.947815 -4.8783417 10.413361 -11.773682 13.396652 -20.686005c2.983284 -8.931107 4.47493 -20.657867 4.47493 -35.180283c0 -12.270889 -0.9287567 -22.018173 -2.7862778 -29.241852c-1.857521 -7.242447 -4.41864 -13.377892 -7.6833725 -18.406326c-3.2647324 -5.0471954 -7.401932 -8.902954 -12.411606 -11.567276c-5.0096664 -2.6830826 -10.8355255 -4.02462 -17.477562 -4.02462z" fill-rule="evenodd"/><path fill="#012e40" d="m197.12892 90.27559c-12.327179 0 -23.218994 2.5329819 -32.675446 7.598938c-9.456467 5.0659637 -16.708282 12.824394 -21.755493 23.275276c-5.028427 10.432137 -7.5426483 21.671059 -7.5426483 33.71679c0 12.158295 2.5329895 23.16269 7.598938 33.01317c5.0659637 9.850479 12.561707 17.383743 22.487244 22.599808c9.94429 5.197296 20.99559 7.7959595 33.1539 7.7959595c9.006149 0 17.78714 -1.613617 26.342987 -4.840805c8.555847 -3.2459717 16.858398 -8.077393 24.907639 -14.494278l0 -45.93138l-52.432693 0.08444214l0 14.522415l36.390488 0l0 23.050125c-3.4898834 3.0958557 -8.612137 6.0134735 -15.366745 8.752853c-6.7546234 2.7205963 -13.678101 4.080902 -20.770447 4.080902c-8.161819 0 -15.873337 -1.8012238 -23.134552 -5.4036865c-7.2612 -3.6024628 -12.796234 -9.118729 -16.605087 -16.548798c-3.7900848 -7.430084 -5.685135 -16.661392 -5.685135 -27.693924c0 -8.94986 1.5760803 -17.25241 4.7282257 -24.907639c1.8575287 -4.446785 4.4561768 -8.527702 7.7959595 -12.242737c3.3585358 -3.715042 7.767807 -6.7077026 13.227783 -8.978012c5.459976 -2.2890625 11.933151 -3.4335938 19.41951 -3.4335938c6.2480164 0 11.933151 1.0882416 17.055405 3.2647324c5.1222534 2.1577225 9.062439 5.037819 11.820572 8.640274c2.758133 3.6024628 5.0659637 8.555847 6.923477 14.860146l14.775726 -4.052765c-2.1389618 -8.330688 -5.26297 -15.085304 -9.372025 -20.26384c-4.10907 -5.1785355 -9.784821 -9.21254 -17.027267 -12.102013c-7.2236786 -2.9082413 -15.310455 -4.362358 -24.260315 -4.362358z" fill-rule="evenodd"/><path stroke="#073763" stroke-width="1.0" stroke-linejoin="round" stroke-linecap="butt" d="m77.15009 104.46028c7.092346 0 13.012009 3.3491592 17.759003 10.047485c4.7657547 6.698326 7.148636 20.235703 7.148636 40.61212c0 20.26384 -2.3828812 33.77307 -7.148636 40.52768c-4.746994 6.754608 -10.610374 10.131912 -17.590141 10.131912c-6.979767 0 -12.852531 -3.3585358 -17.618282 -10.075623c-4.746994 -6.735855 -7.120487 -20.26384 -7.120487 -40.58397c0 -20.32013 2.6174126 -34.251526 7.8522377 -41.79418c4.165348 -5.910286 9.737904 -8.865425 16.71767 -8.865425zm0.16886139 -12.580467c-9.006149 0 -16.483135 2.4204025 -22.430946 7.2612076c-5.9290504 4.840805 -10.403984 11.726761 -13.424793 20.65786c-3.0020523 8.912346 -4.5030746 20.686012 -4.5030746 35.321007c0 23.247131 4.0809097 40.021088 12.242737 50.32187c6.8109016 8.555847 16.182926 12.833771 28.116077 12.833771c9.062439 0 16.55819 -2.4297943 22.487236 -7.2893524c5.947815 -4.8783417 10.413361 -11.773682 13.396652 -20.686005c2.983284 -8.931107 4.47493 -20.657867 4.47493 -35.180283c0 -12.270889 -0.9287567 -22.018173 -2.7862778 -29.241852c-1.857521 -7.242447 -4.41864 -13.377892 -7.6833725 -18.406326c-3.2647324 -5.0471954 -7.401932 -8.902954 -12.411606 -11.567276c-5.0096664 -2.6830826 -10.8355255 -4.02462 -17.477562 -4.02462z" fill-rule="evenodd"/><path stroke="#073763" stroke-width="1.0" stroke-linejoin="round" stroke-linecap="butt" d="m197.12892 90.27559c-12.327179 0 -23.218994 2.5329819 -32.675446 7.598938c-9.456467 5.0659637 -16.708282 12.824394 -21.755493 23.275276c-5.028427 10.432137 -7.5426483 21.671059 -7.5426483 33.71679c0 12.158295 2.5329895 23.16269 7.598938 33.01317c5.0659637 9.850479 12.561707 17.383743 22.487244 22.599808c9.94429 5.197296 20.99559 7.7959595 33.1539 7.7959595c9.006149 0 17.78714 -1.613617 26.342987 -4.840805c8.555847 -3.2459717 16.858398 -8.077393 24.907639 -14.494278l0 -45.93138l-52.432693 0.08444214l0 14.522415l36.390488 0l0 23.050125c-3.4898834 3.0958557 -8.612137 6.0134735 -15.366745 8.752853c-6.7546234 2.7205963 -13.678101 4.080902 -20.770447 4.080902c-8.161819 0 -15.873337 -1.8012238 -23.134552 -5.4036865c-7.2612 -3.6024628 -12.796234 -9.118729 -16.605087 -16.548798c-3.7900848 -7.430084 -5.685135 -16.661392 -5.685135 -27.693924c0 -8.94986 1.5760803 -17.25241 4.7282257 -24.907639c1.8575287 -4.446785 4.4561768 -8.527702 7.7959595 -12.242737c3.3585358 -3.715042 7.767807 -6.7077026 13.227783 -8.978012c5.459976 -2.2890625 11.933151 -3.4335938 19.41951 -3.4335938c6.2480164 0 11.933151 1.0882416 17.055405 3.2647324c5.1222534 2.1577225 9.062439 5.037819 11.820572 8.640274c2.758133 3.6024628 5.0659637 8.555847 6.923477 14.860146l14.775726 -4.052765c-2.1389618 -8.330688 -5.26297 -15.085304 -9.372025 -20.26384c-4.10907 -5.1785355 -9.784821 -9.21254 -17.027267 -12.102013c-7.2236786 -2.9082413 -15.310455 -4.362358 -24.260315 -4.362358z" fill-rule="evenodd"/><path fill="#f2e3d5" d="m62.313656 85.20696l5.5905495 33.85827l-30.944878 -14.834648z" fill-rule="evenodd"/><path fill="#012e40" d="m45.30524 63.20633l2.4409447 31.70079l-25.84252 -18.503937z" fill-rule="evenodd"/><path stroke="#000000" stroke-width="1.0" stroke-linejoin="round" stroke-linecap="butt" d="m45.30524 63.20633l2.4409447 31.70079l-25.84252 -18.503937z" fill-rule="evenodd"/><path fill="#f2e3d5" d="m31.889784 93.262215l24.220472 -14.3937l8.409451 14.110237l-24.220474 14.3937z" fill-rule="evenodd"/><path fill="#f2e3d5" d="m11.152269 64.88273l24.220472 -14.3937l8.346455 13.984253l-24.22047 14.3937z" fill-rule="evenodd"/><path fill="#f2e3d5" d="m203.78119 81.98492l-7.842514 33.401573l-22.897644 -25.622047z" fill-rule="evenodd"/><path fill="#012e40" d="m196.60954 55.1242l-9.984253 30.220474l-16.724411 -27.039371z" fill-rule="evenodd"/><path stroke="#000000" stroke-width="1.0" stroke-linejoin="round" stroke-linecap="butt" d="m196.60954 55.1242l-9.984253 30.220474l-16.724411 -27.039371z" fill-rule="evenodd"/><path fill="#f2e3d5" d="m172.63885 77.719315l27.905518 -3.9685059l2.2992096 16.251968l-27.905518 3.9685059z" fill-rule="evenodd"/></g></svg>