<svg version="1.1" viewBox="0.0 0.0 960.0 720.0" fill="none" stroke="none" stroke-linecap="square" stroke-miterlimit="10" xmlns:xlink="http://www.w3.org/1999/xlink" xmlns="http://www.w3.org/2000/svg"><clipPath id="p.0"><path d="m0 0l960.0 0l0 720.0l-960.0 0l0 -720.0z" clip-rule="nonzero"/></clipPath><g clip-path="url(#p.0)"><path fill="#000000" fill-opacity="0.0" d="m0 0l960.0 0l0 720.0l-960.0 0z" fill-rule="evenodd"/><path fill="#f2e3d5" d="m53.52231 118.514435l848.72437 0l0 375.937l-848.72437 0z" fill-rule="evenodd"/><path fill="#012e40" d="m94.04562 389.1802l0 12.642242l46.519836 0l-47.323997 57.78781l0 10.005341l68.59684 0l0 -12.642242l-48.820114 0l47.324005 -57.78781l0 -10.005341z" fill-rule="evenodd"/><path fill="#012e40" d="m199.63445 419.0653c3.453537 0 6.5018616 0.76675415 9.144989 2.300293c2.6431274 1.5210571 4.7252197 3.6218567 6.246277 6.3023987c1.084198 1.8951721 1.7664337 4.0021973 2.0467072 6.3211365l-34.904785 0c0.32363892 -2.306366 0.9967804 -4.388489 2.0194244 -6.2463074c1.496109 -2.7304382 3.5657501 -4.8561707 6.2088776 -6.377228c2.6431274 -1.5335388 5.722641 -2.300293 9.23851 -2.300293zm0 -11.501465c-6.1215973 0 -11.576187 1.340271 -16.363754 4.0208435c-4.787567 2.680542 -8.546555 6.377228 -11.276962 11.090027c-2.7179565 4.7127686 -4.0769196 10.13623 -4.0769196 16.270325c0 6.0468445 1.3963623 11.445374 4.1891327 16.195557c2.8052063 4.7502136 6.7512054 8.484283 11.837997 11.20224c5.0992584 2.7179565 11.058792 4.076935 17.87857 4.076935c5.361084 0 10.129944 -0.86026 14.306595 -2.5808105c4.1766357 -1.7205505 7.642639 -4.1953735 10.397995 -7.42453l-7.705002 -8.845825c-2.1444244 2.3065186 -4.5943146 3.9959106 -7.349655 5.068115c-2.7553406 1.0722351 -5.8597717 1.6083374 -9.313309 1.6083374c-3.9771729 0 -7.499283 -0.76675415 -10.566315 -2.300293c-3.0670319 -1.5335083 -5.442108 -3.7153625 -7.125244 -6.545532c-1.0607758 -1.7915344 -1.7872772 -3.7489624 -2.1795044 -5.872284l48.147614 0c0.07481384 -0.68573 0.13092041 -1.408844 0.1683197 -2.169403c0.037399292 -0.77297974 0.056106567 -1.4649353 0.056106567 -2.0758667c0 -6.433319 -1.340271 -12.025085 -4.020813 -16.7753c-2.6805267 -4.750183 -6.3584747 -8.428162 -11.033844 -11.033905c-4.675354 -2.6057434 -9.999039 -3.9086304 -15.971008 -3.9086304z" fill-rule="evenodd"/><path fill="#012e40" d="m279.94897 407.56384c-5.8971863 0 -10.821899 1.0722046 -14.774139 3.2166748c-2.9346924 1.5973816 -5.284851 3.748169 -7.0504456 6.452423l0 0l0 -8.977142l-13.670731 0l0 61.359802l14.362686 0l0 -29.75418c0 -6.283722 1.6083374 -11.015198 4.8249817 -14.194458c3.2166443 -3.1792908 7.5429077 -4.768921 12.97879 -4.768921c0.5361023 0 1.0722351 0.018707275 1.6083069 0.056121826c0.5361328 0.037384033 1.1096497 0.1308899 1.7205505 0.28051758l0 -13.670837z" fill-rule="evenodd"/><path fill="#012e40" d="m319.26007 419.75726c3.4410706 0 6.539276 0.76675415 9.294617 2.300293c2.7553406 1.5210571 4.9184875 3.7215881 6.4894104 6.601654c1.5709229 2.8675537 2.3563843 6.296173 2.3563843 10.285828c0 3.9024048 -0.7854614 7.312317 -2.3563843 10.229767c-1.5709229 2.9049683 -3.7340698 5.124237 -6.4894104 6.6577454c-2.7553406 1.5335388 -5.8971863 2.300293 -9.425507 2.300293c-3.4410706 0 -6.520569 -0.76675415 -9.238525 -2.300293c-2.717926 -1.5335083 -4.881073 -3.752777 -6.48938 -6.6577454c-1.6083374 -2.91745 -2.4124756 -6.327362 -2.4124756 -10.229767c0 -3.9896545 0.8041382 -7.418274 2.4124756 -10.285828c1.6083069 -2.880066 3.7714539 -5.080597 6.48938 -6.601654c2.7179565 -1.5335388 5.841095 -2.300293 9.369415 -2.300293zm-0.1308899 -12.19342c-6.2712097 0 -11.862946 1.340271 -16.775177 4.0208435c-4.8997803 2.680542 -8.770996 6.377228 -11.613586 11.090027c-2.8301697 4.7127686 -4.2452393 10.13623 -4.2452393 16.270325c0 6.0468445 1.4150696 11.445374 4.2452393 16.195557c2.8425903 4.7502136 6.713806 8.484283 11.613586 11.20224c4.9122314 2.7179565 10.503967 4.076935 16.775177 4.076935c6.35849 0 12.006317 -1.3589783 16.943481 -4.076935c4.949646 -2.7179565 8.820831 -6.4520264 11.613586 -11.20224c2.7927551 -4.750183 4.1891174 -10.148712 4.1891174 -16.195557c0 -6.208893 -1.3963623 -11.651062 -4.1891174 -16.326447c-2.7927551 -4.6753845 -6.6639404 -8.353363 -11.613586 -11.033905c-4.9371643 -2.6805725 -10.584991 -4.0208435 -16.943481 -4.0208435z" fill-rule="evenodd"/><path fill="#012e40" d="m363.71933 431.68884l0 11.950287l31.605408 0l0 -11.950287z" fill-rule="evenodd"/><path fill="#012e40" d="m450.81482 388.03943c-6.283661 0 -12.068634 1.0161133 -17.35492 3.0483398c-5.2862854 2.0197754 -9.905518 4.887329 -13.857758 8.602722c-3.9397583 3.7153625 -6.9818726 8.104004 -9.126312 13.165894c-2.1444092 5.049408 -3.2166443 10.566376 -3.2166443 16.550873c0 5.9720154 1.0722351 11.488983 3.2166443 16.550873c2.1444397 5.0494385 5.1678467 9.431824 9.070221 13.147186c3.9148254 3.715393 8.496674 6.589203 13.745544 8.621429c5.248871 2.0197754 11.015137 3.029663 17.298828 3.029663c5.6602783 0 11.264465 -0.8602905 16.812561 -2.5808105c5.5605774 -1.7205505 10.447876 -4.263977 14.661926 -7.630249l0 -32.07318l-14.138275 0l0 25.020538l0 0c-1.6278381 0.9402771 -3.2922668 1.7015076 -4.993286 2.2837524c-3.7153625 1.2592468 -7.561615 1.888855 -11.538788 1.888855c-4.288849 0 -8.197449 -0.68573 -11.7258 -2.0571594c-3.5283203 -1.3839417 -6.5953674 -3.3600464 -9.20108 -5.928406c-2.5932617 -2.5683594 -4.6005554 -5.573059 -6.021881 -9.01416c-1.4212952 -3.4535522 -2.131958 -7.2063293 -2.131958 -11.258331c0 -4.139282 0.71066284 -7.929474 2.131958 -11.370544c1.4213257 -3.4535522 3.4286194 -6.445801 6.021881 -8.976746c2.605713 -2.5309448 5.710144 -4.482147 9.313293 -5.8535767c3.6031494 -1.3839417 7.5117493 -2.0758972 11.7258 -2.0758972c4.363678 0 8.365784 0.7480774 12.006317 2.2442017c3.640564 1.4961243 7.0317383 3.8151245 10.173584 6.95697l9.40683 -9.201172c-3.752777 -4.2888794 -8.365784 -7.542938 -13.839081 -9.762207c-5.4732666 -2.2192383 -11.619812 -3.3288574 -18.439606 -3.3288574z" fill-rule="evenodd"/><path fill="#012e40" d="m565.48724 404.07007l15.121704 35.21161l-30.17987 0l15.0581665 -35.21161zm-7.234375 -14.889862l-36.205994 80.435394l15.409973 0l7.9577026 -18.608032l40.230103 0l7.991333 18.608032l15.634338 0l-36.318176 -80.435394z" fill-rule="evenodd"/><path fill="#012e40" d="m653.6087 407.56384c-5.897156 0 -10.821899 1.0722046 -14.774109 3.2166748c-2.9347534 1.5973816 -5.284851 3.748169 -7.050476 6.452423l0 0l0 -8.977142l-13.670715 0l0 61.359802l14.362671 0l0 -29.75418c0 -6.283722 1.6083374 -11.015198 4.824951 -14.194458c3.2166748 -3.1792908 7.5429077 -4.768921 12.978821 -4.768921c0.5361328 0 1.0722046 0.018707275 1.6083374 0.056121826c0.5360718 0.037384033 1.1096191 0.1308899 1.72052 0.28051758l0 -13.670837z" fill-rule="evenodd"/><path fill="#012e40" d="m691.8725 419.0653c3.4535522 0 6.501892 0.76675415 9.14502 2.300293c2.6431274 1.5210571 4.7252197 3.6218567 6.246277 6.3023987c1.0841675 1.8951721 1.7664185 4.0021973 2.046692 6.3211365l-34.904785 0c0.32366943 -2.306366 0.99676514 -4.388489 2.0194092 -6.2463074c1.4961548 -2.7304382 3.565796 -4.8561707 6.2089233 -6.377228c2.6431274 -1.5335388 5.722595 -2.300293 9.238464 -2.300293zm0 -11.501465c-6.121582 0 -11.576172 1.340271 -16.363708 4.0208435c-4.7875977 2.680542 -8.54657 6.377228 -11.276978 11.090027c-2.7179565 4.7127686 -4.0769043 10.13623 -4.0769043 16.270325c0 6.0468445 1.3963623 11.445374 4.189087 16.195557c2.8052368 4.7502136 6.7512207 8.484283 11.838013 11.20224c5.099243 2.7179565 11.058777 4.076935 17.878601 4.076935c5.361084 0 10.129944 -0.86026 14.30658 -2.5808105c4.1766357 -1.7205505 7.642639 -4.1953735 10.39801 -7.42453l-7.705017 -8.845825c-2.1444092 2.3065186 -4.5942993 3.9959106 -7.3496704 5.068115c-2.75531 1.0722351 -5.859741 1.6083374 -9.313293 1.6083374c-3.9771729 0 -7.4992676 -0.76675415 -10.566284 -2.300293c-3.0670776 -1.5335083 -5.4421387 -3.7153625 -7.125244 -6.545532c-1.060791 -1.7915344 -1.7872925 -3.7489624 -2.1795044 -5.872284l48.147583 0c0.0748291 -0.68573 0.13092041 -1.408844 0.16833496 -2.169403c0.037353516 -0.77297974 0.05609131 -1.4649353 0.05609131 -2.0758667c0 -6.433319 -1.340271 -12.025085 -4.020813 -16.7753c-2.680542 -4.750183 -6.3584595 -8.428162 -11.033813 -11.033905c-4.675415 -2.6057434 -9.999084 -3.9086304 -15.971069 -3.9086304z" fill-rule="evenodd"/><path fill="#012e40" d="m771.4951 407.56384c-5.361084 0 -10.09259 1.0535278 -14.194397 3.160553c-2.7537231 1.4188538 -5.0664673 3.2475586 -6.9382324 5.4861145l0 0l0 -7.954712l-13.670776 0l0 61.359802l14.362732 0l0 -31.025879c0 -4.139282 0.70440674 -7.5679016 2.1132202 -10.285858c1.4213257 -2.7179565 3.4348755 -4.762665 6.0405884 -6.134094c2.605713 -1.3839417 5.591736 -2.0758972 8.958008 -2.0758972c4.600525 0 8.184998 1.3403015 10.753296 4.0208435c2.5682983 2.6805725 3.852478 6.7388 3.852478 12.174713l0 33.32617l14.362732 0l0 -35.158936c0 -6.208893 -1.1158447 -11.283264 -3.3475952 -15.223053c-2.2191772 -3.9522705 -5.2612915 -6.8821716 -9.126282 -8.789734c-3.8649292 -1.9200134 -8.25354 -2.8800354 -13.1657715 -2.8800354z" fill-rule="evenodd"/><path fill="#012e40" d="m852.3907 443.30252l0 7.1252747c-1.2218628 3.1418762 -3.2353516 5.516968 -6.0405884 7.125305c-2.7927246 1.6083374 -5.9470215 2.412506 -9.462891 2.412506c-3.6779785 0 -6.551697 -0.76675415 -8.621399 -2.300293c-2.06958 -1.5335388 -3.1044312 -3.60318 -3.1044312 -6.2089233c0 -2.2940369 0.84161377 -4.2265625 2.5247192 -5.7974854c1.6831055 -1.5709229 4.980835 -2.3563843 9.893066 -2.3563843zm-13.558533 -35.738678c-4.8997803 0 -9.631226 0.63586426 -14.194397 1.9075623c-4.55072 1.2592163 -8.471741 3.1543274 -11.763184 5.685272l5.6290894 10.454163c2.2940674 -1.9200134 5.10553 -3.4161377 8.434387 -4.488373c3.3413086 -1.0722046 6.732483 -1.6083374 10.173584 -1.6083374c5.1365967 0 8.964172 1.1719666 11.482666 3.5158997c2.5309448 2.3314514 3.7963867 5.604248 3.7963867 9.818329l0 0.9163513l-15.858826 0c-6.196411 0 -11.1710205 0.8041687 -14.923706 2.412506c-3.7527466 1.6083374 -6.458252 3.7901917 -8.116455 6.5455627c-1.6456909 2.7553406 -2.468567 5.8598022 -2.468567 9.3133545c0 3.5283813 0.9350586 6.6889343 2.8051758 9.481689c1.8826294 2.7927856 4.5444946 4.9746094 7.9855347 6.5455627c3.4534912 1.5709229 7.480591 2.3563843 12.081116 2.3563843c5.435852 0 9.9366455 -0.9911804 13.502441 -2.9735413c2.4507446 -1.3710632 4.3832397 -3.1220093 5.7974243 -5.2528687l0 0l0 7.422241l13.558533 0l0 -35.963074c0 -8.889496 -2.4311523 -15.459961 -7.293518 -19.711456c-4.8623657 -4.2514954 -11.738281 -6.377228 -20.627686 -6.377228z" fill-rule="evenodd"/><path stroke="#073763" stroke-width="1.0" stroke-linejoin="round" stroke-linecap="butt" d="m94.04562 389.1802l0 12.642242l46.519836 0l-47.323997 57.78781l0 10.005341l68.59684 0l0 -12.642242l-48.820114 0l47.324005 -57.78781l0 -10.005341z" fill-rule="evenodd"/><path stroke="#073763" stroke-width="1.0" stroke-linejoin="round" stroke-linecap="butt" d="m199.63445 419.0653c3.453537 0 6.5018616 0.76675415 9.144989 2.300293c2.6431274 1.5210571 4.7252197 3.6218567 6.246277 6.3023987c1.084198 1.8951721 1.7664337 4.0021973 2.0467072 6.3211365l-34.904785 0c0.32363892 -2.306366 0.9967804 -4.388489 2.0194244 -6.2463074c1.496109 -2.7304382 3.5657501 -4.8561707 6.2088776 -6.377228c2.6431274 -1.5335388 5.722641 -2.300293 9.23851 -2.300293zm0 -11.501465c-6.1215973 0 -11.576187 1.340271 -16.363754 4.0208435c-4.787567 2.680542 -8.546555 6.377228 -11.276962 11.090027c-2.7179565 4.7127686 -4.0769196 10.13623 -4.0769196 16.270325c0 6.0468445 1.3963623 11.445374 4.1891327 16.195557c2.8052063 4.7502136 6.7512054 8.484283 11.837997 11.20224c5.0992584 2.7179565 11.058792 4.076935 17.87857 4.076935c5.361084 0 10.129944 -0.86026 14.306595 -2.5808105c4.1766357 -1.7205505 7.642639 -4.1953735 10.397995 -7.42453l-7.705002 -8.845825c-2.1444244 2.3065186 -4.5943146 3.9959106 -7.349655 5.068115c-2.7553406 1.0722351 -5.8597717 1.6083374 -9.313309 1.6083374c-3.9771729 0 -7.499283 -0.76675415 -10.566315 -2.300293c-3.0670319 -1.5335083 -5.442108 -3.7153625 -7.125244 -6.545532c-1.0607758 -1.7915344 -1.7872772 -3.7489624 -2.1795044 -5.872284l48.147614 0c0.07481384 -0.68573 0.13092041 -1.408844 0.1683197 -2.169403c0.037399292 -0.77297974 0.056106567 -1.4649353 0.056106567 -2.0758667c0 -6.433319 -1.340271 -12.025085 -4.020813 -16.7753c-2.6805267 -4.750183 -6.3584747 -8.428162 -11.033844 -11.033905c-4.675354 -2.6057434 -9.999039 -3.9086304 -15.971008 -3.9086304z" fill-rule="evenodd"/><path stroke="#073763" stroke-width="1.0" stroke-linejoin="round" stroke-linecap="butt" d="m279.94897 407.56384c-5.8971863 0 -10.821899 1.0722046 -14.774139 3.2166748c-2.9346924 1.5973816 -5.284851 3.748169 -7.0504456 6.452423l0 0l0 -8.977142l-13.670731 0l0 61.359802l14.362686 0l0 -29.75418c0 -6.283722 1.6083374 -11.015198 4.8249817 -14.194458c3.2166443 -3.1792908 7.5429077 -4.768921 12.97879 -4.768921c0.5361023 0 1.0722351 0.018707275 1.6083069 0.056121826c0.5361328 0.037384033 1.1096497 0.1308899 1.7205505 0.28051758l0 -13.670837z" fill-rule="evenodd"/><path stroke="#073763" stroke-width="1.0" stroke-linejoin="round" stroke-linecap="butt" d="m319.26007 419.75726c3.4410706 0 6.539276 0.76675415 9.294617 2.300293c2.7553406 1.5210571 4.9184875 3.7215881 6.4894104 6.601654c1.5709229 2.8675537 2.3563843 6.296173 2.3563843 10.285828c0 3.9024048 -0.7854614 7.312317 -2.3563843 10.229767c-1.5709229 2.9049683 -3.7340698 5.124237 -6.4894104 6.6577454c-2.7553406 1.5335388 -5.8971863 2.300293 -9.425507 2.300293c-3.4410706 0 -6.520569 -0.76675415 -9.238525 -2.300293c-2.717926 -1.5335083 -4.881073 -3.752777 -6.48938 -6.6577454c-1.6083374 -2.91745 -2.4124756 -6.327362 -2.4124756 -10.229767c0 -3.9896545 0.8041382 -7.418274 2.4124756 -10.285828c1.6083069 -2.880066 3.7714539 -5.080597 6.48938 -6.601654c2.7179565 -1.5335388 5.841095 -2.300293 9.369415 -2.300293zm-0.1308899 -12.19342c-6.2712097 0 -11.862946 1.340271 -16.775177 4.0208435c-4.8997803 2.680542 -8.770996 6.377228 -11.613586 11.090027c-2.8301697 4.7127686 -4.2452393 10.13623 -4.2452393 16.270325c0 6.0468445 1.4150696 11.445374 4.2452393 16.195557c2.8425903 4.7502136 6.713806 8.484283 11.613586 11.20224c4.9122314 2.7179565 10.503967 4.076935 16.775177 4.076935c6.35849 0 12.006317 -1.3589783 16.943481 -4.076935c4.949646 -2.7179565 8.820831 -6.4520264 11.613586 -11.20224c2.7927551 -4.750183 4.1891174 -10.148712 4.1891174 -16.195557c0 -6.208893 -1.3963623 -11.651062 -4.1891174 -16.326447c-2.7927551 -4.6753845 -6.6639404 -8.353363 -11.613586 -11.033905c-4.9371643 -2.6805725 -10.584991 -4.0208435 -16.943481 -4.0208435z" fill-rule="evenodd"/><path stroke="#073763" stroke-width="1.0" stroke-linejoin="round" stroke-linecap="butt" d="m363.71933 431.68884l0 11.950287l31.605408 0l0 -11.950287z" fill-rule="evenodd"/><path stroke="#073763" stroke-width="1.0" stroke-linejoin="round" stroke-linecap="butt" d="m450.81482 388.03943c-6.283661 0 -12.068634 1.0161133 -17.35492 3.0483398c-5.2862854 2.0197754 -9.905518 4.887329 -13.857758 8.602722c-3.9397583 3.7153625 -6.9818726 8.104004 -9.126312 13.165894c-2.1444092 5.049408 -3.2166443 10.566376 -3.2166443 16.550873c0 5.9720154 1.0722351 11.488983 3.2166443 16.550873c2.1444397 5.0494385 5.1678467 9.431824 9.070221 13.147186c3.9148254 3.715393 8.496674 6.589203 13.745544 8.621429c5.248871 2.0197754 11.015137 3.029663 17.298828 3.029663c5.6602783 0 11.264465 -0.8602905 16.812561 -2.5808105c5.5605774 -1.7205505 10.447876 -4.263977 14.661926 -7.630249l0 -32.07318l-14.138275 0l0 25.020538l0 0c-1.6278381 0.9402771 -3.2922668 1.7015076 -4.993286 2.2837524c-3.7153625 1.2592468 -7.561615 1.888855 -11.538788 1.888855c-4.288849 0 -8.197449 -0.68573 -11.7258 -2.0571594c-3.5283203 -1.3839417 -6.5953674 -3.3600464 -9.20108 -5.928406c-2.5932617 -2.5683594 -4.6005554 -5.573059 -6.021881 -9.01416c-1.4212952 -3.4535522 -2.131958 -7.2063293 -2.131958 -11.258331c0 -4.139282 0.71066284 -7.929474 2.131958 -11.370544c1.4213257 -3.4535522 3.4286194 -6.445801 6.021881 -8.976746c2.605713 -2.5309448 5.710144 -4.482147 9.313293 -5.8535767c3.6031494 -1.3839417 7.5117493 -2.0758972 11.7258 -2.0758972c4.363678 0 8.365784 0.7480774 12.006317 2.2442017c3.640564 1.4961243 7.0317383 3.8151245 10.173584 6.95697l9.40683 -9.201172c-3.752777 -4.2888794 -8.365784 -7.542938 -13.839081 -9.762207c-5.4732666 -2.2192383 -11.619812 -3.3288574 -18.439606 -3.3288574z" fill-rule="evenodd"/><path stroke="#073763" stroke-width="1.0" stroke-linejoin="round" stroke-linecap="butt" d="m565.48724 404.07007l15.121704 35.21161l-30.17987 0l15.0581665 -35.21161zm-7.234375 -14.889862l-36.205994 80.435394l15.409973 0l7.9577026 -18.608032l40.230103 0l7.991333 18.608032l15.634338 0l-36.318176 -80.435394z" fill-rule="evenodd"/><path stroke="#073763" stroke-width="1.0" stroke-linejoin="round" stroke-linecap="butt" d="m653.6087 407.56384c-5.897156 0 -10.821899 1.0722046 -14.774109 3.2166748c-2.9347534 1.5973816 -5.284851 3.748169 -7.050476 6.452423l0 0l0 -8.977142l-13.670715 0l0 61.359802l14.362671 0l0 -29.75418c0 -6.283722 1.6083374 -11.015198 4.824951 -14.194458c3.2166748 -3.1792908 7.5429077 -4.768921 12.978821 -4.768921c0.5361328 0 1.0722046 0.018707275 1.6083374 0.056121826c0.5360718 0.037384033 1.1096191 0.1308899 1.72052 0.28051758l0 -13.670837z" fill-rule="evenodd"/><path stroke="#073763" stroke-width="1.0" stroke-linejoin="round" stroke-linecap="butt" d="m691.8725 419.0653c3.4535522 0 6.501892 0.76675415 9.14502 2.300293c2.6431274 1.5210571 4.7252197 3.6218567 6.246277 6.3023987c1.0841675 1.8951721 1.7664185 4.0021973 2.046692 6.3211365l-34.904785 0c0.32366943 -2.306366 0.99676514 -4.388489 2.0194092 -6.2463074c1.4961548 -2.7304382 3.565796 -4.8561707 6.2089233 -6.377228c2.6431274 -1.5335388 5.722595 -2.300293 9.238464 -2.300293zm0 -11.501465c-6.121582 0 -11.576172 1.340271 -16.363708 4.0208435c-4.7875977 2.680542 -8.54657 6.377228 -11.276978 11.090027c-2.7179565 4.7127686 -4.0769043 10.13623 -4.0769043 16.270325c0 6.0468445 1.3963623 11.445374 4.189087 16.195557c2.8052368 4.7502136 6.7512207 8.484283 11.838013 11.20224c5.099243 2.7179565 11.058777 4.076935 17.878601 4.076935c5.361084 0 10.129944 -0.86026 14.30658 -2.5808105c4.1766357 -1.7205505 7.642639 -4.1953735 10.39801 -7.42453l-7.705017 -8.845825c-2.1444092 2.3065186 -4.5942993 3.9959106 -7.3496704 5.068115c-2.75531 1.0722351 -5.859741 1.6083374 -9.313293 1.6083374c-3.9771729 0 -7.4992676 -0.76675415 -10.566284 -2.300293c-3.0670776 -1.5335083 -5.4421387 -3.7153625 -7.125244 -6.545532c-1.060791 -1.7915344 -1.7872925 -3.7489624 -2.1795044 -5.872284l48.147583 0c0.0748291 -0.68573 0.13092041 -1.408844 0.16833496 -2.169403c0.037353516 -0.77297974 0.05609131 -1.4649353 0.05609131 -2.0758667c0 -6.433319 -1.340271 -12.025085 -4.020813 -16.7753c-2.680542 -4.750183 -6.3584595 -8.428162 -11.033813 -11.033905c-4.675415 -2.6057434 -9.999084 -3.9086304 -15.971069 -3.9086304z" fill-rule="evenodd"/><path stroke="#073763" stroke-width="1.0" stroke-linejoin="round" stroke-linecap="butt" d="m771.4951 407.56384c-5.361084 0 -10.09259 1.0535278 -14.194397 3.160553c-2.7537231 1.4188538 -5.0664673 3.2475586 -6.9382324 5.4861145l0 0l0 -7.954712l-13.670776 0l0 61.359802l14.362732 0l0 -31.025879c0 -4.139282 0.70440674 -7.5679016 2.1132202 -10.285858c1.4213257 -2.7179565 3.4348755 -4.762665 6.0405884 -6.134094c2.605713 -1.3839417 5.591736 -2.0758972 8.958008 -2.0758972c4.600525 0 8.184998 1.3403015 10.753296 4.0208435c2.5682983 2.6805725 3.852478 6.7388 3.852478 12.174713l0 33.32617l14.362732 0l0 -35.158936c0 -6.208893 -1.1158447 -11.283264 -3.3475952 -15.223053c-2.2191772 -3.9522705 -5.2612915 -6.8821716 -9.126282 -8.789734c-3.8649292 -1.9200134 -8.25354 -2.8800354 -13.1657715 -2.8800354z" fill-rule="evenodd"/><path stroke="#073763" stroke-width="1.0" stroke-linejoin="round" stroke-linecap="butt" d="m852.3907 443.30252l0 7.1252747c-1.2218628 3.1418762 -3.2353516 5.516968 -6.0405884 7.125305c-2.7927246 1.6083374 -5.9470215 2.412506 -9.462891 2.412506c-3.6779785 0 -6.551697 -0.76675415 -8.621399 -2.300293c-2.06958 -1.5335388 -3.1044312 -3.60318 -3.1044312 -6.2089233c0 -2.2940369 0.84161377 -4.2265625 2.5247192 -5.7974854c1.6831055 -1.5709229 4.980835 -2.3563843 9.893066 -2.3563843zm-13.558533 -35.738678c-4.8997803 0 -9.631226 0.63586426 -14.194397 1.9075623c-4.55072 1.2592163 -8.471741 3.1543274 -11.763184 5.685272l5.6290894 10.454163c2.2940674 -1.9200134 5.10553 -3.4161377 8.434387 -4.488373c3.3413086 -1.0722046 6.732483 -1.6083374 10.173584 -1.6083374c5.1365967 0 8.964172 1.1719666 11.482666 3.5158997c2.5309448 2.3314514 3.7963867 5.604248 3.7963867 9.818329l0 0.9163513l-15.858826 0c-6.196411 0 -11.1710205 0.8041687 -14.923706 2.412506c-3.7527466 1.6083374 -6.458252 3.7901917 -8.116455 6.5455627c-1.6456909 2.7553406 -2.468567 5.8598022 -2.468567 9.3133545c0 3.5283813 0.9350586 6.6889343 2.8051758 9.481689c1.8826294 2.7927856 4.5444946 4.9746094 7.9855347 6.5455627c3.4534912 1.5709229 7.480591 2.3563843 12.081116 2.3563843c5.435852 0 9.9366455 -0.9911804 13.502441 -2.9735413c2.4507446 -1.3710632 4.3832397 -3.1220093 5.7974243 -5.2528687l0 0l0 7.422241l13.558533 0l0 -35.963074c0 -8.889496 -2.4311523 -15.459961 -7.293518 -19.711456c-4.8623657 -4.2514954 -11.738281 -6.377228 -20.627686 -6.377228z" fill-rule="evenodd"/><path fill="#012e40" d="m413.84564 192.3146c7.092346 0 13.011993 3.3491669 17.759003 10.047485c4.765747 6.6983337 7.1486206 20.235703 7.1486206 40.61212c0 20.263855 -2.3828735 33.77307 -7.1486206 40.52768c-4.7470093 6.754608 -10.610382 10.1319275 -17.590149 10.1319275c-6.979767 0 -12.852539 -3.358551 -17.618286 -10.075623c-4.7470093 -6.7358704 -7.1204834 -20.263855 -7.1204834 -40.583984c0 -20.32013 2.6174011 -34.251526 7.852234 -41.794174c4.165344 -5.9102783 9.737915 -8.865433 16.717682 -8.865433zm0.16885376 -12.58046c-9.006165 0 -16.483124 2.420395 -22.430939 7.2612c-5.9290466 4.840805 -10.403992 11.726761 -13.424805 20.657867c-3.0020447 8.912338 -4.5030823 20.686005 -4.5030823 35.321c0 23.247131 4.0809326 40.021088 12.242737 50.32187c6.810913 8.555847 16.182922 12.833771 28.116089 12.833771c9.062439 0 16.558197 -2.429779 22.487244 -7.2893677c5.947815 -4.8783264 10.413361 -11.773651 13.396637 -20.686005c2.983307 -8.931091 4.474945 -20.657837 4.474945 -35.180267c0 -12.270874 -0.928772 -22.018158 -2.7862854 -29.241852c-1.8575134 -7.242447 -4.41864 -13.377884 -7.68338 -18.406326c-3.26474 -5.0471954 -7.4019165 -8.902954 -12.411591 -11.567276c-5.009674 -2.683075 -10.835541 -4.0246124 -17.47757 -4.0246124z" fill-rule="evenodd"/><path fill="#012e40" d="m533.82446 178.12991c-12.327148 0 -23.218994 2.5329895 -32.675446 7.5989532c-9.456451 5.0659485 -16.708282 12.824387 -21.755493 23.275269c-5.0284424 10.432129 -7.5426636 21.671051 -7.542633 33.71678c0 12.15831 2.532959 23.16269 7.598938 33.013184c5.0659485 9.850464 12.561707 17.383728 22.487213 22.599792c9.944305 5.197296 20.995575 7.7959595 33.1539 7.7959595c9.006165 0 17.78717 -1.613617 26.343018 -4.8408203c8.555847 -3.2459717 16.858398 -8.077362 24.907593 -14.494263l0 -45.931366l-52.43268 0.08442688l0 14.522415l36.390503 0l0 23.05011c-3.4898682 3.0958862 -8.612122 6.013489 -15.36676 8.752869c-6.7545776 2.7206116 -13.678101 4.080902 -20.770447 4.080902c-8.161804 0 -15.873352 -1.8012085 -23.134521 -5.4036865c-7.2612305 -3.6024475 -12.796265 -9.118713 -16.605103 -16.548798c-3.7901 -7.430084 -5.68515 -16.661377 -5.68515 -27.693924c0 -8.94986 1.5760803 -17.25241 4.728241 -24.907639c1.8575134 -4.4467773 4.4561768 -8.527695 7.7959595 -12.242737c3.358551 -3.7150269 7.7677917 -6.7077026 13.227783 -8.977997c5.459961 -2.2890778 11.9331665 -3.4335938 19.419495 -3.4335938c6.248047 0 11.9331665 1.0882416 17.05542 3.2647247c5.1222534 2.15773 9.062439 5.0378113 11.820557 8.640274c2.7581787 3.6024628 5.065979 8.555847 6.923523 14.860153l14.775696 -4.052765c-2.138977 -8.330688 -5.2630005 -15.085312 -9.372009 -20.26384c-4.10907 -5.178543 -9.784851 -9.212555 -17.027283 -12.10202c-7.223694 -2.908249 -15.310486 -4.3623657 -24.260315 -4.3623657z" fill-rule="evenodd"/><path stroke="#073763" stroke-width="1.0" stroke-linejoin="round" stroke-linecap="butt" d="m413.84564 192.3146c7.092346 0 13.011993 3.3491669 17.759003 10.047485c4.765747 6.6983337 7.1486206 20.235703 7.1486206 40.61212c0 20.263855 -2.3828735 33.77307 -7.1486206 40.52768c-4.7470093 6.754608 -10.610382 10.1319275 -17.590149 10.1319275c-6.979767 0 -12.852539 -3.358551 -17.618286 -10.075623c-4.7470093 -6.7358704 -7.1204834 -20.263855 -7.1204834 -40.583984c0 -20.32013 2.6174011 -34.251526 7.852234 -41.794174c4.165344 -5.9102783 9.737915 -8.865433 16.717682 -8.865433zm0.16885376 -12.58046c-9.006165 0 -16.483124 2.420395 -22.430939 7.2612c-5.9290466 4.840805 -10.403992 11.726761 -13.424805 20.657867c-3.0020447 8.912338 -4.5030823 20.686005 -4.5030823 35.321c0 23.247131 4.0809326 40.021088 12.242737 50.32187c6.810913 8.555847 16.182922 12.833771 28.116089 12.833771c9.062439 0 16.558197 -2.429779 22.487244 -7.2893677c5.947815 -4.8783264 10.413361 -11.773651 13.396637 -20.686005c2.983307 -8.931091 4.474945 -20.657837 4.474945 -35.180267c0 -12.270874 -0.928772 -22.018158 -2.7862854 -29.241852c-1.8575134 -7.242447 -4.41864 -13.377884 -7.68338 -18.406326c-3.26474 -5.0471954 -7.4019165 -8.902954 -12.411591 -11.567276c-5.009674 -2.683075 -10.835541 -4.0246124 -17.47757 -4.0246124z" fill-rule="evenodd"/><path stroke="#073763" stroke-width="1.0" stroke-linejoin="round" stroke-linecap="butt" d="m533.82446 178.12991c-12.327148 0 -23.218994 2.5329895 -32.675446 7.5989532c-9.456451 5.0659485 -16.708282 12.824387 -21.755493 23.275269c-5.0284424 10.432129 -7.5426636 21.671051 -7.542633 33.71678c0 12.15831 2.532959 23.16269 7.598938 33.013184c5.0659485 9.850464 12.561707 17.383728 22.487213 22.599792c9.944305 5.197296 20.995575 7.7959595 33.1539 7.7959595c9.006165 0 17.78717 -1.613617 26.343018 -4.8408203c8.555847 -3.2459717 16.858398 -8.077362 24.907593 -14.494263l0 -45.931366l-52.43268 0.08442688l0 14.522415l36.390503 0l0 23.05011c-3.4898682 3.0958862 -8.612122 6.013489 -15.36676 8.752869c-6.7545776 2.7206116 -13.678101 4.080902 -20.770447 4.080902c-8.161804 0 -15.873352 -1.8012085 -23.134521 -5.4036865c-7.2612305 -3.6024475 -12.796265 -9.118713 -16.605103 -16.548798c-3.7901 -7.430084 -5.68515 -16.661377 -5.68515 -27.693924c0 -8.94986 1.5760803 -17.25241 4.728241 -24.907639c1.8575134 -4.4467773 4.4561768 -8.527695 7.7959595 -12.242737c3.358551 -3.7150269 7.7677917 -6.7077026 13.227783 -8.977997c5.459961 -2.2890778 11.9331665 -3.4335938 19.419495 -3.4335938c6.248047 0 11.9331665 1.0882416 17.05542 3.2647247c5.1222534 2.15773 9.062439 5.0378113 11.820557 8.640274c2.7581787 3.6024628 5.065979 8.555847 6.923523 14.860153l14.775696 -4.052765c-2.138977 -8.330688 -5.2630005 -15.085312 -9.372009 -20.26384c-4.10907 -5.178543 -9.784851 -9.212555 -17.027283 -12.10202c-7.223694 -2.908249 -15.310486 -4.3623657 -24.260315 -4.3623657z" fill-rule="evenodd"/><path fill="#f2e3d5" d="m399.0092 173.0613l5.5905457 33.85826l-30.944855 -14.8346405z" fill-rule="evenodd"/><path fill="#012e40" d="m382.0008 151.06065l2.440918 31.70079l-25.842499 -18.503937z" fill-rule="evenodd"/><path stroke="#000000" stroke-width="1.0" stroke-linejoin="round" stroke-linecap="butt" d="m382.0008 151.06065l2.440918 31.70079l-25.842499 -18.503937z" fill-rule="evenodd"/><path fill="#f2e3d5" d="m368.58533 181.11655l24.220459 -14.393707l8.409454 14.110245l-24.220459 14.393692z" fill-rule="evenodd"/><path fill="#f2e3d5" d="m347.8478 152.73706l24.220459 -14.393707l8.346466 13.984253l-24.220459 14.393707z" fill-rule="evenodd"/><path fill="#f2e3d5" d="m540.47675 169.83925l-7.8425293 33.401566l-22.897644 -25.62204z" fill-rule="evenodd"/><path fill="#012e40" d="m533.30505 142.97853l-9.984253 30.220474l-16.724396 -27.039368z" fill-rule="evenodd"/><path stroke="#000000" stroke-width="1.0" stroke-linejoin="round" stroke-linecap="butt" d="m533.30505 142.97853l-9.984253 30.220474l-16.724396 -27.039368z" fill-rule="evenodd"/><path fill="#f2e3d5" d="m509.33438 165.57364l27.905548 -3.9685059l2.2991943 16.251968l-27.905518 3.9685059z" fill-rule="evenodd"/><path fill="#f2e3d5" d="m501.11774 131.39871l27.905518 -3.9685059l2.2991943 16.125977l-27.905518 3.9685059z" fill-rule="evenodd"/></g></svg>